<?xml version="1.0" encoding="UTF-8" standalone="no"?>
<!-- Created with Inkscape (http://www.inkscape.org/) -->

<svg
   xmlns:dc="http://purl.org/dc/elements/1.1/"
   xmlns:cc="http://creativecommons.org/ns#"
   xmlns:rdf="http://www.w3.org/1999/02/22-rdf-syntax-ns#"
   xmlns:svg="http://www.w3.org/2000/svg"
   xmlns="http://www.w3.org/2000/svg"
   xmlns:sodipodi="http://sodipodi.sourceforge.net/DTD/sodipodi-0.dtd"
   xmlns:inkscape="http://www.inkscape.org/namespaces/inkscape"
   width="1102.2667"
   height="799.94824"
   id="svg2"
   version="1.1"
   inkscape:version="0.48.4 r9939"
   sodipodi:docname="Сова и птички.svg">
  <defs
     id="defs4" />
  <sodipodi:namedview
     id="base"
     pagecolor="#ffffff"
     bordercolor="#666666"
     borderopacity="1.0"
     inkscape:pageopacity="0.0"
     inkscape:pageshadow="2"
     inkscape:zoom="1.979899"
     inkscape:cx="14.804091"
     inkscape:cy="119.01766"
     inkscape:document-units="px"
     inkscape:current-layer="layer1"
     showgrid="false"
     fit-margin-top="0"
     fit-margin-left="0"
     fit-margin-right="0"
     fit-margin-bottom="0"
     inkscape:window-width="1920"
     inkscape:window-height="1018"
     inkscape:window-x="-8"
     inkscape:window-y="-8"
     inkscape:window-maximized="1" />
  <metadata
     id="metadata7">
    <rdf:RDF>
      <cc:Work
         rdf:about="">
        <dc:format>image/svg+xml</dc:format>
        <dc:type
           rdf:resource="http://purl.org/dc/dcmitype/StillImage" />
        <dc:title />
      </cc:Work>
    </rdf:RDF>
  </metadata>
  <g
     inkscape:label="Layer 1"
     inkscape:groupmode="layer"
     id="layer1"
     transform="translate(-193.13296,244.30277)">
    <g
       id="g3026"
       transform="matrix(3.35212,0,0,3.35212,-454.31007,-1306.9506)">
      <path
         sodipodi:nodetypes="ssscsscsccccsscssssssssssssssssccsccssssssssccccccc"
         inkscape:connector-curvature="0"
         id="path3814"
         d="m 324.40625,326.78125 c -2.59888,0.13882 -5.16904,0.78627 -7.4375,1.84375 -4.09628,1.90954 -6.54286,6.39984 -8.75,10.34375 -1.52301,2.72144 -1.44196,6.05803 -2.15625,9.09375 -2.5,1.30952 -4.68473,3.73973 -7.5,3.9375 -11.87921,0.83449 -23.83229,-0.15114 -35.71875,-0.875 -6.70612,-0.40839 -13.33333,-1.66667 -20,-2.5 -0.71428,-2.14286 -0.94907,-4.50897 -2.125,-6.4375 -1.84895,-3.03229 -3.5415,-6.76361 -6.78125,-8.21875 -16.82377,-7.27429 -25.43821,3.15273 -25,19.65625 -0.40637,7.6103 -0.35268,15.2247 -0.53125,22.84375 -8.93585,15.48879 -9.90344,27.41798 -3.59375,45.1875 -4.83741,21.3286 -6.21261,41.04872 -6.0625,63.90625 0.0669,10.18688 1.28873,20.62926 4.8125,30.1875 1.47227,3.99352 6.31399,5.70536 9.46875,8.5625 1.30953,1.48809 2.36898,3.25671 3.9375,4.46875 3.71018,2.86695 7.26061,6.44305 11.78125,7.6875 6.43679,1.77193 13.32492,0.93889 20,1.0625 12.61688,0.23365 25.2352,0.51463 37.84375,0 10.74758,-0.43868 21.45795,-1.72602 32.15625,-2.84375 5.25795,-0.54934 10.94835,0.12215 15.71875,-2.15625 3.72902,-1.78102 6.38085,-5.57993 8.21875,-9.28125 2.55636,-5.14823 3.76469,-10.91052 4.625,-16.59375 1.11537,-7.36819 0.595,-14.92046 1.25,-22.34375 0.59571,-6.75139 1.94525,-13.40138 2.5,-20.15625 0.45821,-5.57931 0.89701,-11.19512 0.53125,-16.78125 -0.2929,-4.47332 -1.48903,-8.85134 -2.5,-13.21875 -1.96647,-8.49515 -2.62063,-17.51983 -6.40625,-25.375 -1.29519,-2.68751 -4.98886,-3.526 -7.875,-4.28125 -3.63515,-0.95125 -7.55255,-1.38812 -11.25,-0.71875 -3.43233,0.62137 -6.48572,2.66085 -9.46875,4.46875 -2.94236,1.78325 -5.44941,4.16667 -8.1875,6.25 l -6.25,-0.71875 c -0.29762,-2.14286 -1.01878,-4.24575 -0.90625,-6.40625 0.18832,-3.61579 1.74545,-7.09824 1.78125,-10.71875 0.0247,-2.49846 -1.05804,-4.90327 -1.59375,-7.34375 2.08333,0.83333 4.01817,2.2684 6.25,2.5 4.20737,0.43661 8.78716,1.17835 12.65625,-0.53125 4.31462,-1.90646 7.11873,-6.21219 10.375,-9.625 2.94621,-3.08785 6.5225,-5.92741 8.21875,-9.84375 2.46854,-5.69942 3.65423,-11.98157 3.90625,-18.1875 0.23192,-5.71113 -0.72649,-11.53502 -2.5,-16.96875 -1.09108,-3.34289 -2.59295,-7.48767 -5.875,-8.75 -2.33601,-0.89846 -4.96362,-1.26382 -7.5625,-1.125 z m -78.875,57.375 c 6.65997,-3.54936 12.53717,2.07116 18.9375,1.59375 l 3.9375,3.21875 0.34375,19.46875 c -2.51913,2.89433 -5.03992,4.868 -8.75,6.0625 -4.92086,-1.98727 -11.58153,-1.64782 -16.96429,-1.94643 0.24142,-8.57042 2.45224,-19.8228 2.49554,-28.39732 z"
         style="fill:#dfbfd4;fill-opacity:1;stroke:none" />
      <path
         sodipodi:nodetypes="sssssssssssscccc"
         inkscape:connector-curvature="0"
         id="path3000"
         d="m 227.5,363.07647 c -4.7619,6.30952 -10.24405,12.13513 -14.28571,18.92857 -1.63892,2.75479 -1.44108,6.26022 -2.5,9.28571 -1.44605,4.13158 -3.67278,7.97159 -5,12.14286 -2.01361,6.32848 -3.64164,12.78501 -5,19.28571 -1.97758,9.46414 -4.01975,18.95271 -5,28.57143 -0.92968,9.12251 -1.45535,18.36024 -0.71429,27.5 0.69624,8.58696 2.69099,17.05721 5,25.35715 2.10996,7.58444 4.09687,15.43297 8.21429,22.14285 2.51919,4.10534 6.78669,7.08545 11.07142,9.28572 4.72774,2.42776 10.09235,3.55953 15.35715,4.28571 5.18897,0.71572 10.47693,0.0888 15.71428,0 7.02381,-0.11905 14.04762,-0.23809 21.07143,-0.35714 -1.37378,9.46174 -6.07547,9.19855 -8.92857,1.96428 -4.49072,7.00825 -6.28062,7.33753 -10.71429,0.53572 -4.7787,6.18212 -10.84997,7.20409 -9.10714,-1.25"
         style="fill:none;stroke:#000000;stroke-width:3;stroke-linecap:round;stroke-linejoin:round;stroke-miterlimit:4;stroke-opacity:1;stroke-dasharray:none;stroke-dashoffset:0" />
      <path
         sodipodi:nodetypes="ccccccccccsssssc"
         inkscape:connector-curvature="0"
         id="path3770"
         d="m 211.875,377.00504 c -1.19048,-1.27976 -2.38095,-2.55953 -3.57143,-3.83929 2.52976,-2.02381 5.05953,-4.04762 7.58929,-6.07143 -8.45654,-1.67836 -5.36692,-1.86968 -0.35715,-6.07142 -13.75683,-0.25361 -4.66217,-2.88642 1.69643,-6.875 -16.00287,-2.06234 -4.70065,-3.52625 3.48215,-5.44643 -2.79762,-2.64881 -5.59524,-5.29762 -8.39286,-7.94643 4.19643,1.22024 8.39285,2.44047 12.58928,3.66071 -2.73809,-5.29762 -4.2135,-10.3427 -6.95159,-15.64032 2.5,1.54762 3.73731,2.8427 6.23731,4.39032 0.65476,-2.76786 0.52743,-5.84894 1.96428,-8.30357 1.54188,-2.63406 3.63734,-5.6351 6.60715,-6.33929 1.54136,-0.36548 1.92653,2.70672 2.05357,4.28572 0.30151,3.74744 -0.68059,7.49246 -0.80357,11.25 -0.14505,4.43215 -0.64988,8.91693 0,13.30357 0.55584,3.75191 2.38095,7.20238 3.57143,10.80357"
         style="fill:none;stroke:#000000;stroke-width:3;stroke-linecap:round;stroke-linejoin:round;stroke-miterlimit:4;stroke-opacity:1;stroke-dasharray:none;stroke-dashoffset:0" />
      <path
         sodipodi:nodetypes="ssssss"
         inkscape:connector-curvature="0"
         id="path3772"
         d="m 200.26274,521.77956 c 0,0 5.63448,-15.72216 10.10152,-23.23351 1.19009,-2.00115 2.70529,-5.76749 3.78808,-7.82868 1.37688,-2.62103 1.72383,-4.41428 2.27284,-7.32361 0.95844,-5.079 1.26607,-10.26059 1.76777,-15.40483 0.9181,-9.41382 2.27284,-28.28427 2.27284,-28.28427"
         style="fill:none;stroke:#000000;stroke-width:3;stroke-linecap:round;stroke-linejoin:round;stroke-miterlimit:4;stroke-opacity:1;stroke-dasharray:none;stroke-dashoffset:0" />
      <path
         sodipodi:nodetypes="ssssssssss"
         inkscape:connector-curvature="0"
         id="path3774"
         d="m 251.02291,381.87343 c -4.77576,1.23246 -9.17268,3.87733 -13.13199,6.81853 -2.08169,1.5464 -3.97559,3.78368 -4.54568,6.31345 -0.85208,3.78109 -1.29831,8.18594 0.50507,11.61676 1.97589,3.75901 5.77839,6.87104 9.84899,8.08122 5.81017,1.72735 12.39806,2.0634 18.18275,0.25254 4.5572,-1.4266 8.37121,-5.26795 10.85914,-9.34392 1.76305,-2.8884 2.51016,-7.06817 1.01015,-10.10152 -2.63904,-5.33671 -7.26922,-9.81636 -12.37437,-12.87945 -2.96742,-1.78045 -7.00326,-1.62233 -10.35406,-0.75761 z"
         style="fill:none;stroke:#000000;stroke-width:3;stroke-linecap:round;stroke-linejoin:round;stroke-miterlimit:4;stroke-opacity:1;stroke-dasharray:none;stroke-dashoffset:0" />
      <path
         sodipodi:nodetypes="ssssssssss"
         inkscape:connector-curvature="0"
         id="path3776"
         d="m 305.57115,384.14627 c -2.69374,2.4412 -6.50297,4.04873 -8.08123,7.32361 -1.99501,4.13965 -2.7835,9.10558 -2.0203,13.63706 0.66419,3.94364 2.74782,8.11422 6.06092,10.35406 3.31383,2.24033 7.89273,2.20086 11.86929,1.76777 4.76341,-0.51879 10.06618,-1.35069 13.63706,-4.54569 3.4269,-3.06618 5.95612,-8.04597 5.55584,-12.6269 -0.44992,-5.14903 -3.84596,-10.09017 -7.82869,-13.38453 -3.36798,-2.78586 -8.27348,-3.14567 -12.6269,-3.53553 -1.57528,-0.14107 -2.8621,1.34687 -4.29315,2.02031"
         style="fill:none;stroke:#000000;stroke-width:3;stroke-linecap:round;stroke-linejoin:round;stroke-miterlimit:4;stroke-opacity:1;stroke-dasharray:none;stroke-dashoffset:0" />
      <path
         sodipodi:nodetypes="ssssss"
         inkscape:connector-curvature="0"
         id="path3778"
         d="m 279.30718,413.4407 c 0.37274,4.97214 1.67183,10.76218 3.09359,14.96289 0.85766,2.53406 1.62399,-4.47569 2.27284,-7.07108 0.36178,-1.44713 1.22086,-4.27108 1.70464,-5.68211 0.52728,-1.53789 2.869,-3.97572 1.26269,-3.72493 -3.07539,0.48016 -8.51983,-0.96689 -8.33376,1.51523 z"
         style="fill:none;stroke:#000000;stroke-width:3;stroke-linecap:round;stroke-linejoin:round;stroke-miterlimit:4;stroke-opacity:1;stroke-dasharray:none;stroke-dashoffset:0" />
      <path
         sodipodi:nodetypes="csssscsssscsscscscscccc"
         inkscape:connector-curvature="0"
         id="path3780"
         d="m 313.9049,355.35693 c 1.93613,-5.05076 4.17952,-9.99423 5.80838,-15.15229 0.90479,-2.86516 0.92205,-5.95569 1.76777,-8.83884 1.01222,-3.45075 1.71424,-7.16359 3.78807,-10.10152 0.52509,-0.74388 2.14981,0.61304 2.27284,1.51523 0.68242,5.00445 0,10.10152 0,15.15228 1.34687,-1.85194 1.99244,-4.53175 4.04061,-5.55583 1.05409,-0.52704 0.29992,2.39582 0,3.53553 -0.557,2.1166 -2.16557,3.90203 -2.52538,6.06091 -0.10809,0.64852 0.62023,1.65489 1.26269,1.51523 1.73524,-0.37723 3.03046,-1.85195 4.54569,-2.77792 -1.09433,1.51523 -2.50957,2.84414 -3.283,4.54569 -0.52713,1.15968 -1.54866,3.05756 -0.50507,3.78807 1.51874,1.06312 3.70389,-0.16836 5.55584,-0.25254 -0.8418,1.01015 -2.09341,1.78852 -2.52539,3.03046 -0.30919,0.88892 -0.69066,2.43165 0.0587,3.00113 2.02176,1.14517 9.47104,1.16944 5.02145,3.13244 -2.60721,1.15021 -8.93957,2.9145 -6.34279,5.98826 1.42783,1.55678 4.09586,-0.97313 6.31346,-0.50507 0.90975,0.19202 0.94053,2.15247 0.25254,2.77792 -1.76814,1.08911 -9.01402,1.58943 -5.95763,4.37028 1.14033,0.99779 2.67463,1.43809 4.18986,1.43809 -2.4412,0.84179 -4.88241,1.68359 -7.32361,2.52538"
         style="fill:none;stroke:#000000;stroke-width:3;stroke-linecap:round;stroke-linejoin:round;stroke-miterlimit:4;stroke-opacity:1;stroke-dasharray:none;stroke-dashoffset:0" />
      <path
         sodipodi:nodetypes="ssssssssssssssssssssss"
         inkscape:connector-curvature="0"
         id="path3782"
         d="m 231.33929,361.0229 c 1.99405,-0.74405 3.92879,-1.67215 5.98214,-2.23215 4.17952,-1.13987 8.54663,-1.5553 12.67857,-2.85714 4.58595,-1.44489 8.69117,-4.35081 13.39286,-5.35714 3.92898,-0.84094 8.05383,-0.47163 12.05357,-0.0893 4.13695,0.39544 8.16811,1.54215 12.23214,2.41072 7.21654,1.54232 14.64766,2.36729 21.60714,4.82142 4.47716,1.57879 8.7634,3.99993 12.32143,7.14286 3.72099,3.28687 6.95152,7.3133 9.10715,11.78572 4.28358,8.88743 7.20103,18.39662 10,27.85714 3.16198,10.68749 6.3318,21.45945 7.85714,32.5 0.99398,7.19454 -0.80188,14.53646 -0.35714,21.78571 0.15571,2.53809 1.8147,4.79983 2.14285,7.32143 0.80834,6.2115 1.19736,12.48635 1.25,18.75 0.0666,7.92198 0.81466,16.01394 -0.89285,23.75 -1.27373,5.77077 -3.60579,10.96981 -6.87501,15.89286 -1.86329,2.8059 -4.64859,4.27159 -6.78571,6.87499 -1.18231,1.44027 -2.22245,4.59056 -4.01786,5.08929 -5.39233,1.49787 -11.18952,0.41606 -16.78571,0.35715 -5.71893,-0.0602 -11.42648,-0.89519 -17.14286,-0.71429 -3.72729,0.11795 -7.36246,1.21964 -11.07143,1.60714 -4.27278,0.44641 -8.57143,0.59524 -12.85714,0.89286"
         style="fill:none;stroke:#000000;stroke-width:3;stroke-linecap:round;stroke-linejoin:round;stroke-miterlimit:4;stroke-opacity:1;stroke-dasharray:none;stroke-dashoffset:0" />
      <path
         sodipodi:nodetypes="cccc"
         inkscape:connector-curvature="0"
         id="path3784"
         d="m 310.98214,538.07647 c -3.32969,8.4445 4.98263,8.94451 6.42858,0.625 2.49606,7.39278 6.41875,5.4005 8.83928,-0.44643 2.66973,9.44672 13.01884,3.67077 5.98214,-0.98214"
         style="fill:none;stroke:#000000;stroke-width:3;stroke-linecap:round;stroke-linejoin:round;stroke-miterlimit:4;stroke-opacity:1;stroke-dasharray:none;stroke-dashoffset:0" />
      <path
         sodipodi:nodetypes="sssssss"
         inkscape:connector-curvature="0"
         id="path3786"
         d="m 332.85714,441.6479 c 0.2381,9.10714 0.99305,18.21543 0.71429,27.32142 -0.0804,2.6266 -1.65317,5.0541 -1.78572,7.67858 -0.16881,3.34233 0.52074,6.67416 0.89286,10 0.58041,5.18743 0.9212,10.4212 1.96429,15.53571 0.80894,3.96641 1.81154,7.96166 3.57143,11.60714 0.80513,1.66777 2.61905,2.61905 3.92857,3.92857"
         style="fill:none;stroke:#000000;stroke-width:3;stroke-linecap:round;stroke-linejoin:round;stroke-miterlimit:4;stroke-opacity:1;stroke-dasharray:none;stroke-dashoffset:0" />
      <path
         sodipodi:nodetypes="cccc"
         inkscape:connector-curvature="0"
         id="path3788"
         d="m 254.82143,455.21932 4.82143,-13.75 c 2.06159,4.67842 3.65707,9.25652 4.28571,14.28572 l -10.53571,0.53571"
         style="fill:none;stroke:#000000;stroke-width:3;stroke-linecap:round;stroke-linejoin:round;stroke-miterlimit:4;stroke-opacity:1;stroke-dasharray:none;stroke-dashoffset:0" />
      <path
         sodipodi:nodetypes="cccc"
         inkscape:connector-curvature="0"
         id="path3790"
         d="m 279.64286,457.18361 c -0.18744,-5.1039 -0.88884,-10.14188 0,-15.17857 l 5.53571,11.78571 -8.21428,0.53572"
         style="fill:none;stroke:#000000;stroke-width:3;stroke-linecap:round;stroke-linejoin:round;stroke-miterlimit:4;stroke-opacity:1;stroke-dasharray:none;stroke-dashoffset:0" />
      <path
         sodipodi:nodetypes="cccc"
         inkscape:connector-curvature="0"
         id="path3792"
         d="m 294.82143,443.07647 c 2.80391,4.02308 4.12186,8.63607 5.71428,13.21428 l -9.91071,0.26786 z"
         style="fill:none;stroke:#000000;stroke-width:3;stroke-linecap:round;stroke-linejoin:round;stroke-miterlimit:4;stroke-opacity:1;stroke-dasharray:none;stroke-dashoffset:0" />
      <path
         sodipodi:nodetypes="cccc"
         inkscape:connector-curvature="0"
         id="path3794"
         d="m 246.96429,483.25504 10.17857,-14.82143 c 0.6322,3.78997 1.60781,6.0848 4.28571,8.57143 l -9.28571,0.35714"
         style="fill:none;stroke:#000000;stroke-width:3;stroke-linecap:round;stroke-linejoin:round;stroke-miterlimit:4;stroke-opacity:1;stroke-dasharray:none;stroke-dashoffset:0" />
      <path
         sodipodi:nodetypes="ccccc"
         inkscape:connector-curvature="0"
         id="path3796"
         d="m 276.78571,480.57647 c 3.05611,-4.73499 3.69631,-8.62938 4.10715,-14.10715 2.6622,3.91865 4.13508,6.88532 3.92857,11.42858 l 1.78571,2.14285 -12.32143,-1.78571"
         style="fill:none;stroke:#000000;stroke-width:3;stroke-linecap:round;stroke-linejoin:round;stroke-miterlimit:4;stroke-opacity:1;stroke-dasharray:none;stroke-dashoffset:0" />
      <path
         sodipodi:nodetypes="cccc"
         inkscape:connector-curvature="0"
         id="path3798"
         d="m 298.75,480.04075 c -1.17598,-5.24362 -0.12977,-8.68621 1.96429,-13.39285 l 2.5,5.71428 c 1.46865,6.9985 5.03087,3.43907 -8.39286,5.71429"
         style="fill:none;stroke:#000000;stroke-width:3;stroke-linecap:round;stroke-linejoin:round;stroke-miterlimit:4;stroke-opacity:1;stroke-dasharray:none;stroke-dashoffset:0" />
      <path
         inkscape:connector-curvature="0"
         id="path3800"
         d="m 262.32143,505.3979 6.60714,-9.64286 0.71429,6.60714 -0.17857,5.53572 z"
         style="fill:none;stroke:#000000;stroke-width:3;stroke-linecap:round;stroke-linejoin:round;stroke-miterlimit:4;stroke-opacity:1;stroke-dasharray:none;stroke-dashoffset:0" />
      <path
         sodipodi:nodetypes="cccc"
         inkscape:connector-curvature="0"
         id="path3802"
         d="m 281.25,509.1479 c 1.58241,-4.81544 3.36903,-9.55308 5.17857,-14.28572 0.75856,3.63434 2.33412,6.86701 3.92857,10.17857 l -8.57143,0"
         style="fill:none;stroke:#000000;stroke-width:3;stroke-linecap:round;stroke-linejoin:round;stroke-miterlimit:4;stroke-opacity:1;stroke-dasharray:none;stroke-dashoffset:0" />
      <path
         inkscape:connector-curvature="0"
         id="path3804"
         d="m 254.65625,382.53125 c -9.23148,9.82959 -7.94922,15.58412 -1.96875,28.59375 3.0381,-4.7586 4.79081,-8.90627 5.375,-12.90625 -2.30342,-0.17706 -4.125,-2.08869 -4.125,-4.4375 0,-2.14709 1.51144,-3.94761 3.53125,-4.375 -0.60985,-2.20993 -1.54468,-4.47543 -2.8125,-6.875 z"
         style="fill:#000000;stroke:none" />
      <path
         inkscape:connector-curvature="0"
         id="path3806"
         d="m 315,385.21875 c -7.12058,10.97214 -7.04491,18.64564 -0.90625,29.46875 2.93453,-4.84778 4.33705,-9.49899 4.59375,-13.9375 -2.43652,-0.0337 -4.40625,-2.02422 -4.40625,-4.46875 0,-2.11285 1.46598,-3.88056 3.4375,-4.34375 -0.64605,-2.29073 -1.56897,-4.53535 -2.71875,-6.71875 z"
         style="fill:#000000;stroke:none" />
      <path
         sodipodi:nodetypes="scsssscssssscsssssssssssss"
         inkscape:connector-curvature="0"
         id="path3846"
         d="m 404.46429,460.21932 c -3.16901,5.16266 -4.64286,11.19048 -6.96429,16.78572 -1.78571,1.0119 -4.20028,1.34031 -5.35714,3.03571 -2.46723,3.61577 -4.71264,7.77497 -5,12.14286 -0.33569,5.10248 0.92745,10.42634 3.21428,15 2.09148,4.18296 6.06804,7.14203 9.46429,10.35714 1.10461,1.04569 2.61905,1.54762 3.92857,2.32143 1.25,2.14286 1.93301,4.73953 3.75001,6.42858 2.5421,2.36308 5.54041,4.60421 8.92856,5.35714 7.57615,1.68358 15.47131,1.25778 23.21429,1.78571 7.97188,0.54354 16.01686,2.54712 23.92857,1.42857 9.63717,-1.3625 19.36331,-3.9975 27.85714,-8.75 6.90698,-3.86462 11.42857,-10.95238 17.14286,-16.42857 2.79762,-3.5119 7.49958,-6.13546 8.39286,-10.53571 0.90777,-4.47159 -1.96932,-8.942 -3.57143,-13.21429 -1.44876,-3.86337 -3.01188,-7.80727 -5.53572,-11.07143 -2.04704,-2.64751 -5.67626,-3.7116 -7.85714,-6.25 -1.54431,-1.79747 -1.60768,-4.5374 -3.03571,-6.42857 -3.0209,-4.00066 -6.35513,-7.82915 -10.17857,-11.07143 -3.67698,-3.11808 -7.77759,-5.81092 -12.14286,-7.85714 -3.34679,-1.56881 -7.13635,-1.92953 -10.71429,-2.85714 -2.85082,-0.7391 -5.62944,-2.00811 -8.57143,-2.14286 -4.94818,-0.22663 -9.91721,0.37535 -14.82142,1.07143 -4.3467,0.61695 -8.62818,1.67806 -12.85715,2.85714 -3.78966,1.0566 -8.05395,1.42557 -11.16071,3.83929 -4.90214,3.80858 -8.80605,8.90587 -12.05357,14.19642 z"
         style="fill:#c0dffe;fill-opacity:1;stroke:none" />
      <path
         sodipodi:nodetypes="csssssscc"
         inkscape:connector-curvature="0"
         id="path3848"
         d="m 430.68365,484.6963 c -1.78571,0.17857 -4.0993,-0.39119 -5.86222,-0.72698 -0.95186,-0.18131 -1.89005,-1.02887 -2.14286,-1.96428 -0.40498,-1.49843 -0.19216,-3.19112 0.35715,-4.64286 0.34291,-0.90627 1.20441,-1.72297 2.14285,-1.96428 1.33092,-0.34224 2.87014,-0.24141 4.10715,0.35714 0.81788,0.39575 1.36606,1.41499 1.42857,2.32143 0.07,1.01473 0.11997,2.98534 0.2544,3.99356 0.13535,1.0151 -0.28504,2.62627 -0.28504,2.62627 z"
         style="fill:#000000;fill-opacity:1;stroke:none" />
      <path
         sodipodi:nodetypes="ssssssss"
         inkscape:connector-curvature="0"
         id="path3850"
         d="m 478.21429,476.82647 c 0.14772,1.36235 -0.41718,2.87308 0.17857,4.10714 0.37052,0.7675 1.48996,1.25851 2.32143,1.07143 1.79366,-0.40357 3.79284,-1.15473 4.82143,-2.67857 0.83255,-1.23341 0.79192,-3.20441 0,-4.46429 -0.76551,-1.21785 -2.51013,-1.54664 -3.92858,-1.78571 -1.32878,-0.22395 -3.11378,-0.55282 -4.01785,0.44642 -0.75191,0.83106 0.50418,2.18938 0.625,3.30358 z"
         style="fill:#000000;fill-opacity:1;stroke:none" />
      <path
         sodipodi:nodetypes="ccssscc"
         inkscape:connector-curvature="0"
         id="path3852"
         d="m 444.82143,493.43361 c 3.08232,4.67376 5.12181,20.13253 9.10715,23.92858 1.30952,-2.02381 5.01143,-5.43497 5.89285,-7.67858 1.11427,-2.83634 0.93934,-5.88017 1.96428,-8.75 0.77975,-2.18331 -8.5e-4,-5.37707 1.96429,-6.60714 1.50436,-0.94165 1.25,-3.80953 1.25,-5.17858 -8.44076,-0.55933 -16.41193,-1.08143 -20.17857,4.28572 z"
         style="fill:#fff9b8;fill-opacity:1;stroke:none" />
      <path
         sodipodi:nodetypes="ssssss"
         inkscape:connector-curvature="0"
         id="path3854"
         d="m 393.75,476.82647 c -2.61905,2.79762 -5.87427,5.11348 -7.85714,8.39285 -1.22616,2.02789 -1.40683,4.59462 -1.42857,6.96429 -0.0384,4.18727 -0.39577,8.64952 1.25,12.5 1.65951,3.88263 5.07917,6.81445 8.21428,9.64286 2.4033,2.16819 5.47619,3.45238 8.21429,5.17857"
         style="fill:none;stroke:#000000;stroke-width:3;stroke-linecap:round;stroke-miterlimit:4;stroke-dasharray:none" />
      <path
         sodipodi:nodetypes="ssssss"
         inkscape:connector-curvature="0"
         id="path3856"
         d="m 514.64286,480.93361 c 1.78571,1.0119 4.31649,1.2666 5.35714,3.03571 1.02611,1.74439 0.11384,4.05082 0,6.07143 -0.1246,2.21171 0.14164,4.56397 -0.71428,6.60715 -1.05345,2.51468 -2.90728,4.66564 -4.82143,6.60714 -2.29085,2.32357 -5.11905,4.04762 -7.67857,6.07143"
         style="fill:none;stroke:#000000;stroke-width:3;stroke-linecap:round;stroke-linejoin:round;stroke-miterlimit:4;stroke-opacity:1;stroke-dasharray:none;stroke-dashoffset:0" />
      <path
         sodipodi:nodetypes="ssssssssssssssssssssssssss"
         inkscape:connector-curvature="0"
         id="path3858"
         d="m 427.32143,445.3979 c -0.41667,-0.95238 -0.21542,-2.95858 -1.25,-2.85715 -2.88821,0.28316 -5.42899,2.16066 -7.85714,3.75 -4.15406,2.71902 -8.72587,5.19734 -11.78572,9.10715 -3.54405,4.5285 -5.53247,10.13234 -7.5,15.53571 -2.04008,5.60262 -3.98334,11.37837 -4.46428,17.32143 -0.3687,4.55605 0.52711,9.23229 1.96428,13.57143 1.69906,5.12984 4.4045,9.91526 7.32143,14.46428 2.11887,3.30443 4.48619,6.64437 7.67857,8.92857 3.87811,2.77485 8.48286,4.47476 13.03572,5.89286 2.79917,0.87187 5.85081,0.4567 8.75,0.89286 3.83278,0.57661 7.61164,1.46928 11.42857,2.14286 3.26687,0.57651 6.50476,1.53991 9.82143,1.60714 5.54608,0.11242 11.2195,0.24958 16.60714,-1.07143 7.13918,-1.75047 14.19235,-4.32172 20.53571,-8.03571 5.31544,-3.11215 10.13142,-7.29302 13.92858,-12.14286 2.39221,-3.0554 2.74748,-7.25838 4.10714,-10.89286 1.73558,-4.63935 4.44736,-9.02947 5.17857,-13.92857 0.49838,-3.33912 -0.2576,-6.90535 -1.60714,-10 -2.17162,-4.97975 -5.20405,-9.63416 -8.75,-13.75 -3.19861,-3.71267 -7.50586,-6.30257 -11.25,-9.46429 -4.29159,-3.62401 -8.41813,-7.451 -12.85715,-10.89285 -3.78433,-2.93423 -7.32034,-6.48475 -11.78571,-8.21429 -4.24791,-1.64532 -9.01689,-1.51784 -13.57143,-1.60714 -7.62339,-0.14948 -15.3836,-0.61864 -22.85714,0.89286 -3.43231,0.69417 -5.95238,3.69047 -8.92857,5.53571"
         style="fill:none;stroke:#000000;stroke-width:3;stroke-linecap:round;stroke-linejoin:round;stroke-miterlimit:4;stroke-opacity:1;stroke-dasharray:none;stroke-dashoffset:0" />
      <path
         sodipodi:nodetypes="cc"
         inkscape:connector-curvature="0"
         id="path3860"
         d="m 433.21429,531.46932 c -2.71543,9.94311 2.45163,13.67059 1.60714,22.67858"
         style="fill:none;stroke:#000000;stroke-width:3;stroke-linecap:round;stroke-linejoin:round;stroke-miterlimit:4;stroke-opacity:1;stroke-dasharray:none;stroke-dashoffset:0" />
      <path
         sodipodi:nodetypes="ccc"
         inkscape:connector-curvature="0"
         id="path3862"
         d="m 428.03572,553.25504 c 0.0926,-4.10314 2.07609,-6.68557 4.28571,-10 5.52443,2.85197 8.63511,1.69433 8.92857,7.85714"
         style="fill:none;stroke:#000000;stroke-width:3;stroke-linecap:round;stroke-linejoin:round;stroke-miterlimit:4;stroke-opacity:1;stroke-dasharray:none;stroke-dashoffset:0" />
      <path
         sodipodi:nodetypes="cc"
         inkscape:connector-curvature="0"
         id="path3864"
         d="m 476.78572,550.04075 c -4.03508,-6.55139 -0.34116,-10.71319 -3.21429,-17.32143"
         style="fill:none;stroke:#000000;stroke-width:3;stroke-linecap:round;stroke-linejoin:round;stroke-miterlimit:4;stroke-opacity:1;stroke-dasharray:none;stroke-dashoffset:0" />
      <path
         sodipodi:nodetypes="ccc"
         inkscape:connector-curvature="0"
         id="path3866"
         d="m 469.82143,550.93361 c 1.19087,-2.87621 2.8346,-3.99416 5.35714,-5.53571 3.67494,-0.0956 5.09003,1.09192 7.67857,3.39285"
         style="fill:none;stroke:#000000;stroke-width:3;stroke-linecap:round;stroke-linejoin:round;stroke-miterlimit:4;stroke-opacity:1;stroke-dasharray:none;stroke-dashoffset:0" />
      <path
         style="fill:none;stroke:#000000;stroke-width:3;stroke-linejoin:round;stroke-miterlimit:4;stroke-dasharray:none"
         d="m 445.89286,494.1479 c 5.22518,5.20947 6.55038,13.70396 8.57143,21.25 3.83774,-6.13238 7.00977,-14.65803 9.28571,-21.07143 0.43293,-1.29879 0,-2.7381 0,-4.10715 -8.44076,-0.55933 -11.23336,-0.01 -17.85714,3.92858 z"
         id="path3868"
         inkscape:connector-curvature="0"
         sodipodi:nodetypes="ccccc" />
      <path
         sodipodi:nodetypes="sssssssssssssssssss"
         inkscape:connector-curvature="0"
         id="path3819"
         d="m 441.96429,400.93361 c -0.21502,1.04286 0.63148,2.15114 1.42857,2.85714 1.37628,1.21899 3.70818,1.21543 4.82143,2.67857 1.15394,1.51661 3.04993,4.53429 1.42857,5.53572 -2.18645,1.35046 -5.02492,-1.09415 -7.5,-1.78572 -1.5773,-0.44072 -3.07108,-2.06717 -4.64286,-1.60714 -1.47428,0.4315 -2.94436,2.23704 -2.67857,3.75 0.61735,3.51414 2.61316,6.81225 5,9.46429 2.05562,2.28402 4.87289,4.08893 7.85714,4.82143 3.81532,0.93649 8.09657,1.35049 11.78572,0 3.44431,-1.26087 6.76945,-3.95015 8.21428,-7.32143 0.89746,-2.09408 -0.71043,-4.81757 -2.32143,-6.42857 -1.77427,-1.77427 -6.07753,-0.50987 -6.96428,-2.85715 -0.76571,-2.02689 2.6046,-3.46343 3.92857,-5.17857 1.29518,-1.67784 4.20419,-2.89841 3.92857,-5 -0.3452,-2.63212 -2.86093,-4.98947 -5.35714,-5.89286 -4.20716,-1.52259 -8.93082,-1.22243 -13.39286,-0.89285 -1.03032,0.0761 -1.72639,1.20901 -2.32142,2.05357 -1.27367,1.80779 -2.76772,3.63772 -3.21429,5.80357 z"
         style="fill:#bdfdc0;fill-opacity:1;stroke:none" />
      <path
         sodipodi:nodetypes="ssssssssssssssssss"
         inkscape:connector-curvature="0"
         id="path3823"
         d="m 432.67857,412.8979 c 0.89286,-0.89286 2.10344,-1.55447 2.67857,-2.67858 0.78249,-1.52941 0.4817,-3.46341 1.25,-5 1.28467,-2.56933 2.7296,-5.17407 4.82143,-7.14285 2.05924,-1.93811 4.62484,-3.43416 7.32143,-4.28572 1.98663,-0.62736 4.21323,-0.43801 6.25,0 3.57025,0.7678 7.51323,1.2805 10.35714,3.57143 1.87721,1.5122 1.92818,4.44399 2.5,6.78572 0.68493,2.80495 1.44641,5.69075 1.25,8.57142 -0.1703,2.49774 -1.05612,4.9826 -2.32142,7.14286 -1.23452,2.10772 -2.87027,4.16099 -5,5.35714 -2.4042,1.3503 -5.27848,1.93107 -8.03572,1.96429 -2.33874,0.0282 -4.52757,-1.17637 -6.78571,-1.78571 -1.49197,-0.40259 -3.04518,-0.63831 -4.46429,-1.25 -2.05475,-0.88567 -4.44469,-1.50866 -5.89286,-3.21429 -1.42545,-1.67886 -1.81024,-4.07288 -2.14285,-6.25 -0.33274,-2.17791 0.37364,-4.41261 0.17857,-6.60714 -0.0497,-0.55934 -0.59524,-0.95238 -0.89286,-1.42857"
         style="fill:none;stroke:#000000;stroke-width:3;stroke-linecap:round;stroke-miterlimit:4;stroke-dasharray:none" />
      <path
         inkscape:connector-curvature="0"
         id="path3825"
         d="m 455,411.6479 c 0.89286,0.17857 6.42857,4.10714 6.42857,4.10714 l -7.5,0.17857"
         style="fill:none;stroke:#000000;stroke-width:3;stroke-linecap:round;stroke-linejoin:round;stroke-miterlimit:4;stroke-opacity:1;stroke-dasharray:none;stroke-dashoffset:0" />
      <path
         inkscape:connector-curvature="0"
         id="path3827"
         d="m 442.14286,424.50504 0.35714,11.25 1.60714,5.71428"
         style="fill:none;stroke:#000000;stroke-width:3;stroke-linecap:round;stroke-linejoin:round;stroke-miterlimit:4;stroke-opacity:1;stroke-dasharray:none;stroke-dashoffset:0" />
      <path
         sodipodi:nodetypes="ccc"
         inkscape:connector-curvature="0"
         id="path3829"
         d="m 453.03571,427.36219 0.89286,9.28571 1.42857,2.85714"
         style="fill:none;stroke:#000000;stroke-width:3;stroke-linecap:round;stroke-linejoin:round;stroke-miterlimit:4;stroke-opacity:1;stroke-dasharray:none;stroke-dashoffset:0" />
      <path
         inkscape:connector-curvature="0"
         id="path3831"
         d="m 452.67857,440.75504 0.35715,-3.39286"
         style="fill:none;stroke:#000000;stroke-width:3;stroke-linecap:round;stroke-linejoin:round;stroke-miterlimit:4;stroke-opacity:1;stroke-dasharray:none;stroke-dashoffset:0" />
      <path
         inkscape:connector-curvature="0"
         id="path3833"
         d="m 440.17857,440.3979 1.42857,-2.5"
         style="fill:none;stroke:#000000;stroke-width:3;stroke-linecap:round;stroke-linejoin:round;stroke-miterlimit:4;stroke-opacity:1;stroke-dasharray:none;stroke-dashoffset:0" />
      <path
         sodipodi:nodetypes="sssssss"
         inkscape:connector-curvature="0"
         id="path3835"
         d="m 448.30357,404.7729 c -1.50358,0.22996 -3.36366,0.90915 -3.92857,2.32142 -0.5175,1.29376 0.26175,3.16691 1.42857,3.92858 1.39763,0.91234 3.41081,0.77796 5,0.26785 1.08501,-0.34827 1.99085,-1.47559 2.23215,-2.58928 0.2095,-0.9669 -0.31023,-2.13592 -1.07143,-2.76786 -0.98493,-0.81768 -2.39532,-1.35424 -3.66072,-1.16071 z"
         style="fill:none;stroke:#000000;stroke-width:1;stroke-linecap:round;stroke-linejoin:round;stroke-miterlimit:4;stroke-opacity:1;stroke-dasharray:none;stroke-dashoffset:0" />
      <path
         style="fill:none;stroke:#000000;stroke-width:0.98109549;stroke-linecap:round;stroke-linejoin:round;stroke-miterlimit:4;stroke-opacity:1;stroke-dasharray:none;stroke-dashoffset:0"
         d="m 462.89206,404.76672 c -1.40738,0.23648 -3.14844,0.93492 -3.67721,2.38722 -0.48439,1.33043 0.245,3.25668 1.33717,4.03994 1.3082,0.9382 3.19257,0.80001 4.68008,0.27544 1.01559,-0.35814 1.86347,-1.51742 2.08933,-2.66267 0.1961,-0.99431 -0.29038,-2.19647 -1.00288,-2.84632 -0.92191,-0.84086 -2.24206,-1.39263 -3.42649,-1.19361 z"
         id="path3837"
         inkscape:connector-curvature="0"
         sodipodi:nodetypes="sssssss" />
      <path
         inkscape:connector-curvature="0"
         id="path3839"
         d="m 446.90625,406.125 c -1.45468,0 -2.625,1.17692 -2.625,2.65625 0,1.47933 1.17032,2.6875 2.625,2.6875 0.5216,0 1.02839,-0.1715 1.4375,-0.4375 -0.58245,-0.16293 -1,-0.69966 -1,-1.34375 0,-0.77291 0.61497,-1.40625 1.375,-1.40625 0.31582,0 0.58026,0.13057 0.8125,0.3125 -0.0983,-1.38822 -1.23486,-2.46875 -2.625,-2.46875 z"
         style="fill:#000000;stroke:none" />
      <path
         transform="translate(-0.35714286,0.35714286)"
         d="m 464.375,407.36218 c 0,1.43003 -0.99937,2.58929 -2.23215,2.58929 -1.23278,0 -2.23214,-1.15926 -2.23214,-2.58929 0,-1.43002 0.99936,-2.58928 2.23214,-2.58928 1.23278,0 2.23215,1.15926 2.23215,2.58928 z"
         sodipodi:ry="2.5892856"
         sodipodi:rx="2.2321429"
         sodipodi:cy="407.36218"
         sodipodi:cx="462.14285"
         id="path3841"
         style="fill:#000000;stroke:none"
         sodipodi:type="arc" />
    </g>
  </g>
</svg>
