<?xml version="1.0" encoding="UTF-8" standalone="no"?>
<!-- Created with Inkscape (http://www.inkscape.org/) -->

<svg
   xmlns:dc="http://purl.org/dc/elements/1.1/"
   xmlns:cc="http://creativecommons.org/ns#"
   xmlns:rdf="http://www.w3.org/1999/02/22-rdf-syntax-ns#"
   xmlns:svg="http://www.w3.org/2000/svg"
   xmlns="http://www.w3.org/2000/svg"
   xmlns:sodipodi="http://sodipodi.sourceforge.net/DTD/sodipodi-0.dtd"
   xmlns:inkscape="http://www.inkscape.org/namespaces/inkscape"
   width="556.25116"
   height="800"
   id="svg4088"
   version="1.1"
   inkscape:version="0.48.4 r9939"
   sodipodi:docname="Новый документ 23">
  <defs
     id="defs4090" />
  <sodipodi:namedview
     id="base"
     pagecolor="#ffffff"
     bordercolor="#666666"
     borderopacity="1.0"
     inkscape:pageopacity="0.0"
     inkscape:pageshadow="2"
     inkscape:zoom="0.35"
     inkscape:cx="-318.71317"
     inkscape:cy="389.07348"
     inkscape:document-units="px"
     inkscape:current-layer="layer1"
     showgrid="false"
     fit-margin-top="0"
     fit-margin-left="0"
     fit-margin-right="0"
     fit-margin-bottom="0"
     inkscape:window-width="1920"
     inkscape:window-height="1018"
     inkscape:window-x="-8"
     inkscape:window-y="-8"
     inkscape:window-maximized="1" />
  <metadata
     id="metadata4093">
    <rdf:RDF>
      <cc:Work
         rdf:about="">
        <dc:format>image/svg+xml</dc:format>
        <dc:type
           rdf:resource="http://purl.org/dc/dcmitype/StillImage" />
        <dc:title></dc:title>
      </cc:Work>
    </rdf:RDF>
  </metadata>
  <g
     inkscape:label="Layer 1"
     inkscape:groupmode="layer"
     id="layer1"
     transform="translate(-99.427455,-121.43567)">
    <g
       id="g4139"
       transform="matrix(2.4065023,0,0,2.4065023,-524.88532,-759.69515)">
      <path
         id="path4053"
         d="m 393.32655,425.52476 c -30.0123,-0.4954 -54.2123,5.3196 -77.875,23.8125 -18.9724,14.8275 -34.7158,33.04061 -45.5937,52.81251 -9.637,17.5164 -12.1365,35.8764 -9.375,54.0938 1.3711,9.0455 3.8379,18.07754 7.7813,26.43745 4.6263,9.80797 8.9686,21.44156 18.4062,28.71875 20.142,15.53109 45.2818,22.50226 67.625,27.71875 17.8081,4.15769 34.2166,6.59059 50,4.59375 15.7834,-1.99684 30.8768,-8.50739 45.6875,-21.84375 22.78082,-20.51307 30.03808,-37.41689 34.625,-65.09375 4.36614,-26.3448 10.17047,-60.9308 1.40625,-85.0938 -7.55505,-20.82921 -25.52453,-35.56601 -45.06255,-41.43741 -11.3503,-3.411 -23.1895,-3.3885 -34.4062,-4.1563 -4.5401,-0.3108 -8.9313,-0.4917 -13.2188,-0.5625 z"
         style="font-size:medium;font-style:normal;font-variant:normal;font-weight:normal;font-stretch:normal;text-indent:0;text-align:start;text-decoration:none;line-height:normal;letter-spacing:normal;word-spacing:normal;text-transform:none;direction:ltr;block-progression:tb;writing-mode:lr-tb;text-anchor:start;baseline-shift:baseline;color:#000000;fill:#000000;fill-opacity:1;stroke:none;stroke-width:5;marker:none;visibility:visible;display:inline;overflow:visible;enable-background:accumulate;font-family:Sans;-inkscape-font-specification:Sans"
         inkscape:connector-curvature="0" />
      <path
         id="path4045"
         d="m 393.26455,430.49356 c 4.1801,0.077 8.4696,0.2879 12.9374,0.5937 11.4506,0.7838 22.9039,0.8095 33.3126,3.9375 18.13254,5.4491 34.83839,19.2337 41.7812,38.37501 7.9805,22.0022 2.73746,56.2399 -1.625,82.5625 -4.50636,27.1908 -10.84845,42.21293 -33.03125,62.1875 -14.16485,12.75478 -28.11935,18.71507 -42.96875,20.59375 -14.8494,1.87868 -30.6867,-0.39948 -48.25,-4.5 -22.1834,-5.17917 -46.5715,-12.07251 -65.6875,-26.8125 -7.946,-6.12697 -12.2303,-16.82951 -16.9687,-26.875 -3.6931,-7.82933 -6.0323,-16.41025 -7.3438,-25.06245 -2.6211,-17.2919 -0.2923,-34.3884 8.8125,-50.9376 10.5189,-19.1193 25.8147,-36.8491 44.2813,-51.28121 22.7748,-17.7991 45.4886,-23.3175 74.75,-22.7812 z"
         style="font-size:medium;font-style:normal;font-variant:normal;font-weight:normal;font-stretch:normal;text-indent:0;text-align:start;text-decoration:none;line-height:normal;letter-spacing:normal;word-spacing:normal;text-transform:none;direction:ltr;block-progression:tb;writing-mode:lr-tb;text-anchor:start;baseline-shift:baseline;color:#000000;fill:#ffcc00;fill-opacity:1;stroke:none;stroke-width:5;marker:none;visibility:visible;display:inline;overflow:visible;enable-background:accumulate;font-family:Sans;-inkscape-font-specification:Sans"
         inkscape:connector-curvature="0" />
      <path
         inkscape:connector-curvature="0"
         id="path3964"
         d="m 296.63915,521.77477 c -5.1317,-0.3778 -10.7919,0.7729 -16.3126,2.75 -7.3608,2.6361 -14.4752,6.81 -19.5937,11.5938 a 2.50025,2.50025 0 1 0 3.4063,3.6562 c 4.4753,-4.1826 11.1457,-8.1525 17.875,-10.5625 6.7292,-2.41 13.5199,-3.2056 18.0624,-1.7813 17.236,5.4044 27.0725,27.2338 33.8126,42.81255 2.3883,5.52049 3.0595,11.97349 3.8437,18.5 0.5297,4.40775 1.7243,12.59363 2.3437,20.28125 0.3098,3.84381 0.4657,7.56163 0.3438,10.53125 -0.1219,2.96962 -0.7401,5.24375 -1,5.625 -0.4514,0.66229 -1.3243,0.91041 -3.2188,0.96875 -1.8944,0.0583 -4.3016,-0.24127 -6.8124,0.25 a 2.5004834,2.5004834 0 1 0 0.9687,4.90625 c 1.3613,-0.26635 3.6097,-0.0826 6,-0.15625 2.3903,-0.0736 5.4166,-0.55825 7.1875,-3.15625 1.5121,-2.21833 1.7389,-4.93464 1.875,-8.25 0.1361,-3.31536 -0.025,-7.16733 -0.3438,-11.125 -0.6378,-7.91535 -1.8645,-16.22101 -2.375,-20.46875 -0.7757,-6.45581 -1.4151,-13.39479 -4.2187,-19.875 -6.7419,-15.5831 -16.6372,-39.2383 -36.9063,-45.5938 -1.5687,-0.4918 -3.2269,-0.7803 -4.9374,-0.9062 z"
         style="font-size:medium;font-style:normal;font-variant:normal;font-weight:normal;font-stretch:normal;text-indent:0;text-align:start;text-decoration:none;line-height:normal;letter-spacing:normal;word-spacing:normal;text-transform:none;direction:ltr;block-progression:tb;writing-mode:lr-tb;text-anchor:start;baseline-shift:baseline;color:#000000;fill:#000000;fill-opacity:1;stroke:none;stroke-width:5;marker:none;visibility:visible;display:inline;overflow:visible;enable-background:accumulate;font-family:Sans;-inkscape-font-specification:Sans" />
      <path
         inkscape:connector-curvature="0"
         id="path3966"
         d="m 283.92035,590.46227 a 2.50025,2.50025 0 0 0 -2.25,2.46875 c -0.1217,6.51185 2.5468,11.92592 4.4375,17.09375 a 2.50025,2.50025 0 1 0 4.6875,-1.71875 c -2.0049,-5.47981 -4.2193,-10.2388 -4.125,-15.28125 a 2.50025,2.50025 0 0 0 -2.75,-2.5625 z"
         style="font-size:medium;font-style:normal;font-variant:normal;font-weight:normal;font-stretch:normal;text-indent:0;text-align:start;text-decoration:none;line-height:normal;letter-spacing:normal;word-spacing:normal;text-transform:none;direction:ltr;block-progression:tb;writing-mode:lr-tb;text-anchor:start;baseline-shift:baseline;color:#000000;fill:#000000;fill-opacity:1;stroke:none;stroke-width:5;marker:none;visibility:visible;display:inline;overflow:visible;enable-background:accumulate;font-family:Sans;-inkscape-font-specification:Sans" />
      <path
         inkscape:connector-curvature="0"
         id="path3968"
         d="m 307.29535,601.55602 a 2.50025,2.50025 0 0 0 -2.375,2.84375 c 0.8655,7.25273 0.6072,9.99161 -2.0938,16.40625 a 2.50025,2.50025 0 1 0 4.5938,1.9375 c 2.8923,-6.8692 3.3446,-11.33627 2.4375,-18.9375 a 2.50025,2.50025 0 0 0 -2.5625,-2.25 z"
         style="font-size:medium;font-style:normal;font-variant:normal;font-weight:normal;font-stretch:normal;text-indent:0;text-align:start;text-decoration:none;line-height:normal;letter-spacing:normal;word-spacing:normal;text-transform:none;direction:ltr;block-progression:tb;writing-mode:lr-tb;text-anchor:start;baseline-shift:baseline;color:#000000;fill:#000000;fill-opacity:1;stroke:none;stroke-width:5;marker:none;visibility:visible;display:inline;overflow:visible;enable-background:accumulate;font-family:Sans;-inkscape-font-specification:Sans" />
      <path
         inkscape:connector-curvature="0"
         id="path3970"
         d="m 338.92035,491.64977 c -0.6158,0.054 -1.1617,0.1981 -1.5625,0.3438 -0.8016,0.2913 -1.3202,0.5373 -1.4375,0.5624 a 2.5067485,2.5067485 0 1 0 1.0312,4.9063 c 1.0613,-0.2275 1.7302,-0.6065 2.125,-0.75 0.082,-0.03 0.057,-0.02 0.094,-0.031 4.1865,1.8402 8.1296,4.6603 12.2812,7.4688 7.1828,4.8589 14.0748,10.3828 21.4688,15.4062 3.8874,2.6411 7.9176,4.8113 11.7188,7.125 a 2.50025,2.50025 0 1 0 2.5937,-4.25 c -3.9434,-2.4002 -7.9193,-4.546 -11.5313,-7 -7.1758,-4.8751 -14.0619,-10.427 -21.4687,-15.4374 -4.1044,-2.7766 -8.315,-5.892 -13.2813,-8.0313 -0.72,-0.3102 -1.4154,-0.3666 -2.0312,-0.3125 z"
         style="font-size:medium;font-style:normal;font-variant:normal;font-weight:normal;font-stretch:normal;text-indent:0;text-align:start;text-decoration:none;line-height:normal;letter-spacing:normal;word-spacing:normal;text-transform:none;direction:ltr;block-progression:tb;writing-mode:lr-tb;text-anchor:start;baseline-shift:baseline;color:#000000;fill:#000000;fill-opacity:1;stroke:none;stroke-width:5;marker:none;visibility:visible;display:inline;overflow:visible;enable-background:accumulate;font-family:Sans;-inkscape-font-specification:Sans" />
      <path
         inkscape:connector-curvature="0"
         id="path3972"
         d="m 447.54535,474.83727 c -0.57632,0.062 -1.16293,0.2538 -1.75,0.5937 -2.86747,1.6601 -5.4162,4.0162 -7.1875,6.9063 -2.3144,3.776 -2.126,7.5997 -3.3125,9.6563 -1.8894,3.2749 -5.0818,6.1552 -7.9062,9.8124 -3.9545,5.1205 -7.7644,10.3179 -11.625,15.4376 a 2.50025,2.50025 0 1 0 3.9687,3 c 3.8837,-5.1502 7.7174,-10.3153 11.625,-15.375 2.4469,-3.1684 5.8296,-6.1798 8.25,-10.375 2.1925,-3.8003 2.031,-7.5423 3.25,-9.5313 1.27752,-2.0845 3.25563,-3.9556 5.4375,-5.2187 -0.21592,0.125 -0.24235,0.059 -0.0625,0.094 0.17985,0.035 0.49791,0.1564 0.625,0.25 -0.15552,-0.1146 -0.10938,-0.1312 0.0312,0.25 0.14063,0.3812 0.29675,1.0622 0.71875,1.9063 a 2.5016108,2.5016108 0 1 0 4.46875,-2.25 c -0.0831,-0.1662 -0.23659,-0.661 -0.5,-1.375 -0.26341,-0.7141 -0.71651,-1.7467 -1.78125,-2.5313 -0.76427,-0.5632 -1.62575,-0.9638 -2.625,-1.1563 -0.49963,-0.096 -1.04868,-0.1561 -1.625,-0.094 z"
         style="font-size:medium;font-style:normal;font-variant:normal;font-weight:normal;font-stretch:normal;text-indent:0;text-align:start;text-decoration:none;line-height:normal;letter-spacing:normal;word-spacing:normal;text-transform:none;direction:ltr;block-progression:tb;writing-mode:lr-tb;text-anchor:start;baseline-shift:baseline;color:#000000;fill:#000000;fill-opacity:1;stroke:none;stroke-width:5;marker:none;visibility:visible;display:inline;overflow:visible;enable-background:accumulate;font-family:Sans;-inkscape-font-specification:Sans" />
      <path
         id="path4057"
         d="m 412.29535,540.39977 c -0.9212,-0.016 -1.6608,0.1747 -2.3125,0.375 -1.3035,0.4006 -2.3797,0.8211 -2.6875,0.8438 -0.4722,0.035 -1.4716,-0.1402 -2.7188,-0.2813 -1.2471,-0.1411 -3.0204,-0.2248 -4.625,0.9063 -3.0781,2.1697 -4.9301,5.5644 -5.7812,8.9374 -1.0304,4.0835 -1.3439,8.6714 0.031,12.9688 1.1858,3.7054 4.269,5.90164 6.6876,7.5625 3.3199,2.27997 6.8661,2.85373 9.4062,4.09375 4.4016,2.14882 8.729,5.00659 13.6562,7.1875 2.8873,1.27794 5.852,1.99993 8.6563,2.65625 2.624,0.61414 5.7535,1.79799 9.375,1.46875 0.52986,-0.0482 1.3103,-0.31735 1.84375,-0.90625 0.53345,-0.5889 0.70026,-1.27691 0.71875,-1.75 0.037,-0.94618 -0.22115,-1.35133 -0.40625,-1.75 -0.3702,-0.79734 -0.78309,-1.36675 -1.1875,-1.84375 -2.27675,-2.68536 -4.86575,-4.15348 -6.12505,-5.90625 -2.4666,-3.43327 -4.0274,-7.9707 -6.9062,-12.25 -2.099,-3.1201 -4.762,-5.1408 -6.2812,-7.3437 -2.5558,-3.706 -3.7611,-9.641 -8.4376,-13.8438 -0.8534,-0.767 -1.985,-1.1086 -2.9062,-1.125 z"
         style="font-size:medium;font-style:normal;font-variant:normal;font-weight:normal;font-stretch:normal;text-indent:0;text-align:start;text-decoration:none;line-height:normal;letter-spacing:normal;word-spacing:normal;text-transform:none;direction:ltr;block-progression:tb;writing-mode:lr-tb;text-anchor:start;baseline-shift:baseline;color:#000000;fill:#000000;fill-opacity:1;stroke:none;stroke-width:5;marker:none;visibility:visible;display:inline;overflow:visible;enable-background:accumulate;font-family:Sans;-inkscape-font-specification:Sans"
         inkscape:connector-curvature="0" />
      <path
         id="path3974"
         d="m 412.04535,545.43097 c 2.942,2.7998 4.1771,8.0083 7.4688,12.7813 2.1241,3.08 4.7667,5.0765 6.25,7.2813 2.388,3.5497 3.9612,8.14528 7,12.37495 1.0272,1.42976 2.2056,2.5239 3.3124,3.46875 -0.7644,-0.19194 -1.4859,-0.36905 -2.3124,-0.5625 -2.7694,-0.64814 -5.4341,-1.30485 -7.7813,-2.34375 -4.4221,-1.95733 -8.6826,-4.78842 -13.4687,-7.125 -3.402,-1.66075 -6.6819,-2.25555 -8.8126,-3.71875 -2.2354,-1.5351 -4.2151,-3.2972 -4.75,-4.9687 -0.9832,-3.0727 -0.8003,-6.7993 0.063,-10.2188 0.6031,-2.3904 2.0635,-4.8077 3.8437,-6.0625 0.05,-0.035 0.2862,-0.1297 1.1563,-0.031 0.87,0.098 2.1091,0.3951 3.6562,0.2813 1.7245,-0.1268 2.936,-0.7715 3.7812,-1.0313 0.3348,-0.1028 0.4812,-0.1116 0.5938,-0.125 z"
         style="font-size:medium;font-style:normal;font-variant:normal;font-weight:normal;font-stretch:normal;text-indent:0;text-align:start;text-decoration:none;line-height:normal;letter-spacing:normal;word-spacing:normal;text-transform:none;direction:ltr;block-progression:tb;writing-mode:lr-tb;text-anchor:start;baseline-shift:baseline;color:#000000;fill:#ff0000;fill-opacity:1;stroke:none;stroke-width:5;marker:none;visibility:visible;display:inline;overflow:visible;enable-background:accumulate;font-family:Sans;-inkscape-font-specification:Sans"
         inkscape:connector-curvature="0" />
      <path
         inkscape:connector-curvature="0"
         id="path3976"
         d="m 350.07655,624.96227 a 2.50025,2.50025 0 0 0 -2.2187,2.25 c -0.3431,3.1459 -0.9823,6.48249 -1.0937,10.03125 -0.2575,8.19587 0,16.30085 0,24.34375 a 2.50025,2.50025 0 0 0 1.375,2.25 c 1.1028,0.55144 2.0756,0.78014 2.75,1.03125 0.6743,0.25111 0.9529,0.45952 1.0312,0.5625 0.8858,1.16546 1.3115,3.19364 1.6562,5.46875 0.508,3.35237 0.3976,6.98943 0.5,10.78125 0.07,2.5698 -0.5003,5.63166 0.031,9.0625 0.3799,2.4514 1.76,3.80129 2.1875,4.65625 a 2.5155765,2.5155765 0 1 0 4.5,-2.25 c -0.8821,-1.7641 -1.6815,-2.74522 -1.75,-3.1875 -0.3616,-2.33372 0.1196,-5.1761 0.031,-8.4375 -0.097,-3.59506 0.037,-7.42117 -0.5624,-11.375 -0.3491,-2.30327 -0.7088,-5.22872 -2.625,-7.75 -0.9688,-1.2746 -2.2517,-1.847 -3.25,-2.21875 -0.3878,-0.14439 -0.5526,-0.2024 -0.875,-0.3125 -0.03,-7.55871 -0.2331,-15.04964 0,-22.46875 0.095,-3.03446 0.6914,-6.22328 1.0624,-9.625 a 2.50025,2.50025 0 0 0 -2.75,-2.8125 z"
         style="font-size:medium;font-style:normal;font-variant:normal;font-weight:normal;font-stretch:normal;text-indent:0;text-align:start;text-decoration:none;line-height:normal;letter-spacing:normal;word-spacing:normal;text-transform:none;direction:ltr;block-progression:tb;writing-mode:lr-tb;text-anchor:start;baseline-shift:baseline;color:#000000;fill:#000000;fill-opacity:1;stroke:none;stroke-width:5;marker:none;visibility:visible;display:inline;overflow:visible;enable-background:accumulate;font-family:Sans;-inkscape-font-specification:Sans" />
      <path
         inkscape:connector-curvature="0"
         id="path3978"
         d="m 348.29535,659.24352 a 2.50025,2.50025 0 0 0 -1.7188,0.78125 c -1.9223,1.97885 -4.2008,3.95936 -6.2187,6.4375 -1.7743,2.17894 -3.0075,4.47203 -4.2813,6.46875 -0.8977,1.40728 -1.7153,2.80904 -2.5312,4.15625 -1.6233,2.68028 -3.7884,5.4144 -5.3125,8.84375 -1.4636,3.29305 -1.9816,6.61257 -2.8125,9.4375 a 2.5068753,2.5068753 0 1 0 4.8125,1.40625 c 0.9549,-3.24649 1.4557,-6.32241 2.5625,-8.8125 1.1873,-2.67147 3.196,-5.25095 5.0312,-8.28125 0.8447,-1.39461 1.6426,-2.76738 2.4688,-4.0625 1.4076,-2.20662 2.5636,-4.31276 3.9375,-6 1.6501,-2.02636 3.8122,-3.90594 5.9375,-6.09375 a 2.50025,2.50025 0 0 0 -1.875,-4.28125 z"
         style="font-size:medium;font-style:normal;font-variant:normal;font-weight:normal;font-stretch:normal;text-indent:0;text-align:start;text-decoration:none;line-height:normal;letter-spacing:normal;word-spacing:normal;text-transform:none;direction:ltr;block-progression:tb;writing-mode:lr-tb;text-anchor:start;baseline-shift:baseline;color:#000000;fill:#000000;fill-opacity:1;stroke:none;stroke-width:5;marker:none;visibility:visible;display:inline;overflow:visible;enable-background:accumulate;font-family:Sans;-inkscape-font-specification:Sans" />
      <path
         inkscape:connector-curvature="0"
         id="path3980"
         d="m 339.63915,655.96227 c -1.8922,0.11745 -3.5699,1.01723 -4.875,2.15625 -2.9374,2.56352 -3.9086,5.75627 -5.375,7.3125 -0.068,0.0722 -0.361,0.25175 -0.9688,0.53125 -0.6078,0.2795 -1.4912,0.64286 -2.4062,1.4375 -1.6119,1.39979 -2.5563,2.93544 -3.4688,4 a 2.50025,2.50025 0 1 0 3.7812,3.25 c 1.2304,-1.43544 2.0946,-2.70958 2.9688,-3.46875 0.1332,-0.11568 0.5408,-0.3445 1.2188,-0.65625 0.6779,-0.31175 1.6471,-0.74928 2.5312,-1.6875 2.5672,-2.72441 3.506,-5.66485 5,-6.96875 0.6998,-0.61073 1.9973,-0.98067 2.4688,-0.875 1.0764,0.24128 2.4789,1.8339 4.875,3.40625 a 2.5048781,2.5048781 0 1 0 2.75,-4.1875 c -1.4136,-0.92765 -3.1928,-3.33845 -6.5626,-4.09375 -0.6721,-0.15065 -1.3067,-0.1954 -1.9374,-0.15625 z"
         style="font-size:medium;font-style:normal;font-variant:normal;font-weight:normal;font-stretch:normal;text-indent:0;text-align:start;text-decoration:none;line-height:normal;letter-spacing:normal;word-spacing:normal;text-transform:none;direction:ltr;block-progression:tb;writing-mode:lr-tb;text-anchor:start;baseline-shift:baseline;color:#000000;fill:#000000;fill-opacity:1;stroke:none;stroke-width:5;marker:none;visibility:visible;display:inline;overflow:visible;enable-background:accumulate;font-family:Sans;-inkscape-font-specification:Sans" />
      <path
         inkscape:connector-curvature="0"
         id="path3982"
         d="m 421.10785,634.43102 a 2.50025,2.50025 0 0 0 -2.375,2.34375 c -0.1823,2.57874 -1.0236,5.58021 -1.5937,8.75 -0.5702,3.16979 -0.864,6.64532 0.5312,10.0625 1.448,3.54642 4.2217,5.84007 6.9062,7.78125 2.6846,1.94118 5.347,3.6137 7.1563,5.5 0.7495,0.78142 1.2799,2.83079 3.1563,4.9375 2.3175,2.60216 4.923,4.56121 7.125,6.59375 a 2.50025,2.50025 0 1 0 3.4062,-3.65625 c -2.44098,-2.25318 -4.8964,-4.16497 -6.7812,-6.28125 -0.7593,-0.85249 -1.2878,-2.98412 -3.2813,-5.0625 -2.4481,-2.55224 -5.3881,-4.28681 -7.8437,-6.0625 -2.4557,-1.77569 -4.342,-3.50869 -5.2188,-5.65625 -0.8378,-2.0521 -0.7276,-4.45229 -0.2188,-7.28125 0.5089,-2.82896 1.4219,-5.93588 1.6563,-9.25 a 2.50025,2.50025 0 0 0 -2.625,-2.71875 z"
         style="font-size:medium;font-style:normal;font-variant:normal;font-weight:normal;font-stretch:normal;text-indent:0;text-align:start;text-decoration:none;line-height:normal;letter-spacing:normal;word-spacing:normal;text-transform:none;direction:ltr;block-progression:tb;writing-mode:lr-tb;text-anchor:start;baseline-shift:baseline;color:#000000;fill:#000000;fill-opacity:1;stroke:none;stroke-width:5;marker:none;visibility:visible;display:inline;overflow:visible;enable-background:accumulate;font-family:Sans;-inkscape-font-specification:Sans" />
      <path
         inkscape:connector-curvature="0"
         id="path3984"
         d="m 419.85785,651.05602 c -1.7143,-0.0448 -2.6728,0.76485 -3.4687,1.65625 -0.398,0.4457 -0.7447,0.95965 -0.9688,1.65625 -0.2241,0.6966 -0.2855,1.67125 0.1562,2.59375 2.1528,4.49533 6.3002,9.43594 7.8438,12.8125 0.4839,1.05857 0.4928,1.29517 0.5,1.84375 0.01,0.54858 -0.1019,1.59192 0,3.1875 a 2.50025,2.50025 0 1 0 4.9688,-0.34375 c -0.077,-1.20204 0.045,-1.84519 0.031,-2.90625 -0.014,-1.06106 -0.2872,-2.35278 -0.9688,-3.84375 -1.8624,-4.07408 -5.1727,-8.2947 -7.0624,-11.59375 4.6894,0.1338 9.5977,0.324 13.5312,0.65625 0.7538,0.0637 1.478,0.59732 2.5312,1.875 1.0533,1.27768 2.1594,3.0937 3.8438,4.625 a 2.50025,2.50025 0 1 0 3.375,-3.6875 c -0.93462,-0.84965 -2.005,-2.46972 -3.3438,-4.09375 -1.3387,-1.62403 -3.2267,-3.4845 -6,-3.71875 -4.4523,-0.37608 -9.8702,-0.58554 -14.9687,-0.71875 z"
         style="font-size:medium;font-style:normal;font-variant:normal;font-weight:normal;font-stretch:normal;text-indent:0;text-align:start;text-decoration:none;line-height:normal;letter-spacing:normal;word-spacing:normal;text-transform:none;direction:ltr;block-progression:tb;writing-mode:lr-tb;text-anchor:start;baseline-shift:baseline;color:#000000;fill:#000000;fill-opacity:1;stroke:none;stroke-width:5;marker:none;visibility:visible;display:inline;overflow:visible;enable-background:accumulate;font-family:Sans;-inkscape-font-specification:Sans" />
      <path
         sodipodi:nodetypes="csssssssscssssssssscsssssscsssssc"
         inkscape:connector-curvature="0"
         id="path3986"
         d="m 335.16815,445.76326 c -0.5051,-4.4615 -0.3583,-9.0461 -1.5152,-13.3845 -0.8924,-3.3467 -2.2916,-6.7141 -4.5457,-9.3439 -2.4328,-2.8383 -5.4771,-5.6113 -9.0914,-6.566 -5.6994,-1.5056 -11.8778,0.5495 -17.6776,-0.5051 -2.7431,-0.4988 -6.6374,-1.3383 -7.3237,-4.0406 -1.0105,-3.9786 0.8129,-8.5907 3.283,-11.8693 2.5021,-3.3211 6.5535,-5.6371 10.6066,-6.566 4.443,-1.0182 9.3354,-0.4972 13.6371,1.0102 5.8042,2.0339 10.6066,6.2293 15.9099,9.3439 -0.2525,-2.7779 0.4365,-5.813 -0.7576,-8.3338 -1.9532,-4.1236 -5.8163,-7.0537 -8.3338,-10.8591 -1.1224,-1.6966 -2.4627,-3.5225 -2.5253,-5.5558 -0.1133,-3.6801 -0.7063,-8.385 2.0203,-10.8592 2.8919,-2.6242 7.7969,-2.3265 11.6167,-1.5152 6.0447,1.2838 16.5002,1.4108 16.9201,7.5761 0.8384,12.3104 1.3331,4.7248 3.5355,8.8389 1.8093,3.3798 2.2194,7.5572 1.7678,11.3642 -0.1963,1.655 -3.127,1.9197 -3.5356,3.5355 -1.5155,5.9932 -1.3469,12.2902 -2.0203,18.4353 1.6836,-3.3672 3.3329,-6.7517 5.0508,-10.1015 1.6495,-3.2165 2.4153,-7.1224 5.0508,-9.5965 1.8463,-1.7332 4.926,-2.8355 7.3236,-2.0203 2.6022,0.8848 4.5977,3.6572 5.3033,6.3135 0.8473,3.1896 0.4399,6.8844 -1.0102,9.849 -2.4784,5.067 -7.3794,8.592 -10.3541,13.3845 -1.6159,2.6034 -2.1887,5.7242 -3.283,8.5863 2.9463,1.0101 6.9702,0.5386 8.8389,3.0304 1.1555,1.5408 -0.3547,3.5962 -2.2366,4.0053 -1.9903,0.4327 -7.472,-2.1921 -9.3802,-1.4799 -2.8923,1.0795 -5.5883,2.6286 -8.3337,4.0406 -3.1485,1.6193 -5.8554,4.4461 -9.3439,5.0508 -3.2048,0.5555 -6.3977,-1.1785 -9.5965,-1.7678 z"
         style="fill:#ff0000;stroke:none" />
      <path
         sodipodi:nodetypes="sssssssssssss"
         inkscape:connector-curvature="0"
         id="path3988"
         d="m 377.97335,528.21697 c -1.2701,-0.3629 -2.111,-1.7759 -3.4092,-2.0203 -2.3991,-0.4516 -5.0349,-0.8494 -7.3236,0 -2.0943,0.7773 -3.7638,2.637 -4.9245,4.5457 -0.8413,1.3835 -0.3079,3.2427 -0.7577,4.7982 -0.5667,1.9596 -2.4067,3.6466 -2.2728,5.6821 0.1067,1.6212 1.3463,3.4533 2.9042,3.9144 4.1237,1.2206 8.6355,1.4533 12.8794,0.7576 3.6817,-0.6036 7.6026,-1.8948 10.2278,-4.5457 2.0795,-2.0999 2.2932,-5.5266 2.6517,-8.46 0.1281,-1.0478 -0.444,-2.2378 -1.2627,-2.9042 -1.1462,-0.933 -2.7185,-1.2213 -4.1669,-1.5152 -1.4873,-0.3018 -3.0865,0.1643 -4.5457,-0.2526 z"
         style="fill:#000000;stroke:none" />
      <path
         sodipodi:nodetypes="ssssssssssssssss"
         inkscape:connector-curvature="0"
         id="path3990"
         d="m 433.36675,513.56547 c -1.5779,0.71 -2.9271,1.9818 -3.9285,3.3929 -0.4134,0.5825 0.5193,1.6524 0,2.1429 -0.8084,0.7635 -2.3891,0.1475 -3.2143,0.8928 -1.1671,1.0541 -1.733,2.6488 -2.3215,4.1072 -0.7894,1.9563 -1.6105,3.9692 -1.7857,6.0714 -0.1309,1.5705 0.6428,3.0868 0.8929,4.6428 0.2859,1.7787 -0.8462,4.4569 0.7143,5.3572 2.4748,1.4278 5.7687,0.5552 8.5714,0 3.6017,-0.7135 7.4867,-1.4605 10.35714,-3.75 2.45885,-1.9612 2.86977,-5.6165 4.64286,-8.2143 0.80674,-1.182 2.65918,-1.6551 3.03571,-3.0357 0.76759,-2.8145 0.82861,-5.9061 0.17857,-8.75 -0.35836,-1.5678 -1.54966,-3.1351 -3.03571,-3.75 -2.26108,-0.9356 -4.87934,-0.6903 -7.32147,-0.5357 -2.3069,0.146 -4.6778,0.4799 -6.7857,1.4285 z"
         style="fill:#000000;stroke:none" />
      <path
         d="m -998.39283,-1049.87 c 0,0.641 -0.87944,1.1607 -1.96427,1.1607 -1.0849,0 -1.9643,-0.5197 -1.9643,-1.1607 0,-0.641 0.8794,-1.1607 1.9643,-1.1607 1.08483,0 1.96427,0.5197 1.96427,1.1607 z"
         sodipodi:ry="1.1607143"
         sodipodi:rx="1.9642857"
         sodipodi:cy="-1049.87"
         sodipodi:cx="-1000.3571"
         id="path3992"
         style="color:#000000;fill:#ffffff;stroke:none;stroke-width:0.30000001;marker:none;visibility:visible;display:inline;overflow:visible;enable-background:accumulate"
         sodipodi:type="arc"
         transform="translate(1442.2954,1569.7747)" />
      <path
         transform="translate(1381.4025,1581.3819)"
         sodipodi:type="arc"
         style="color:#000000;fill:#ffffff;stroke:none;stroke-width:0.30000001;marker:none;visibility:visible;display:inline;overflow:visible;enable-background:accumulate"
         id="path3994"
         sodipodi:cx="-1000.3571"
         sodipodi:cy="-1049.87"
         sodipodi:rx="1.9642857"
         sodipodi:ry="1.1607143"
         d="m -998.39283,-1049.87 c 0,0.641 -0.87944,1.1607 -1.96427,1.1607 -1.0849,0 -1.9643,-0.5197 -1.9643,-1.1607 0,-0.641 0.8794,-1.1607 1.9643,-1.1607 1.08483,0 1.96427,0.5197 1.96427,1.1607 z" />
    </g>
  </g>
</svg>
